<?xml version="1.0" standalone="no"?>
<!DOCTYPE svg PUBLIC "-//W3C//DTD SVG 20010904//EN"
 "http://www.w3.org/TR/2001/REC-SVG-20010904/DTD/svg10.dtd">
<svg version="1.0" xmlns="http://www.w3.org/2000/svg"
 width="381.000000pt" height="381.000000pt" viewBox="0 0 381.000000 381.000000"
 preserveAspectRatio="xMidYMid meet">
<metadata>
Created by potrace 1.11, written by Peter Selinger 2001-2013
</metadata>
<g transform="translate(0.000000,381.000000) scale(0.100000,-0.100000)"
fill="#000000" stroke="none">
<path d="M0 1906 l0 -1904 1905 -1 1905 -1 0 1905 0 1905 -1905 0 -1905 0 0
-1904z m2192 1642 c25 -20 31 -54 13 -72 -21 -20 -49 -20 -69 0 -21 20 -20 43
1 66 19 21 33 23 55 6z m130 -5 c22 -20 23 -41 1 -65 -20 -22 -46 -23 -67 -2
-21 21 -20 54 2 70 23 18 42 17 64 -3z m-484 -5 c20 -20 15 -66 -9 -78 -16 -9
-26 -8 -45 5 -41 27 -27 85 21 85 12 0 26 -5 33 -12z m120 0 c19 -19 15 -66
-8 -78 -40 -22 -83 27 -60 70 12 22 49 27 68 8z m137 -22 c8 -24 6 -31 -14
-47 -31 -25 -47 -24 -67 6 -14 21 -15 31 -5 51 9 21 17 25 43 22 26 -2 35 -9
43 -32z m231 -101 c24 -37 6 -75 -35 -75 -46 0 -68 52 -35 84 23 23 51 19 70
-9z m-488 3 c16 -16 15 -53 -2 -68 -36 -29 -92 13 -75 58 9 25 56 31 77 10z
m-3 -158 c0 -40 -31 -57 -64 -34 -27 20 -27 59 1 78 32 23 63 0 63 -44z m470
54 c9 -4 21 -18 26 -31 18 -49 -34 -91 -72 -57 -23 21 -24 51 -2 76 18 20 23
21 48 12z m-727 -130 c39 -27 24 -86 -22 -86 -29 0 -55 26 -56 54 0 15 34 48
50 48 3 0 16 -7 28 -16z m730 0 c24 -17 30 -62 10 -82 -19 -19 -55 -14 -72 10
-21 30 -20 44 4 68 24 24 29 24 58 4z m-1194 -10 c23 -22 20 -61 -5 -74 -46
-25 -97 53 -51 79 24 15 38 13 56 -5z m114 0 c26 -18 28 -41 5 -66 -21 -23
-38 -23 -63 2 -21 21 -18 46 8 68 20 15 23 15 50 -4z m113 6 c35 -19 20 -90
-20 -90 -21 0 -51 30 -51 51 0 19 25 49 41 49 6 0 19 -5 30 -10z m124 -10 c15
-17 16 -24 7 -45 -7 -16 -20 -25 -33 -25 -27 0 -59 27 -59 50 0 41 54 54 85
20z m243 8 c7 -7 12 -21 12 -33 0 -45 -53 -61 -85 -25 -15 17 -16 24 -7 45 13
27 58 35 80 13z m125 -9 c14 -23 1 -67 -23 -74 -43 -14 -82 35 -60 75 14 25
67 25 83 -1z m1355 9 c17 -17 15 -64 -4 -83 -39 -38 -107 11 -82 59 6 12 16
24 22 28 17 12 51 9 64 -4z m-2300 -10 c34 -34 -6 -90 -48 -68 -20 10 -28 58
-13 73 11 11 48 8 61 -5z m116 -4 c9 -8 16 -22 16 -29 0 -15 -27 -45 -40 -45
-4 0 -18 8 -30 18 -18 14 -22 25 -16 45 7 31 44 37 70 11z m-126 -110 c28 -19
26 -51 -3 -70 -41 -27 -88 39 -53 74 16 16 29 15 56 -4z m1436 0 c33 -32 11
-84 -35 -84 -22 0 -32 6 -41 25 -25 55 34 101 76 59z m868 -1 c25 -23 23 -68
-4 -87 -30 -21 -44 -20 -68 4 -25 25 -25 41 1 74 24 30 45 33 71 9z m-2311
-113 c36 -20 21 -80 -20 -80 -32 0 -51 16 -51 45 0 40 32 55 71 35z m1433 -6
c33 -33 12 -94 -33 -94 -16 0 -51 38 -51 55 0 19 35 55 54 55 8 0 22 -7 30
-16z m885 -25 c13 -24 13 -29 -2 -53 -12 -18 -26 -26 -45 -26 -35 0 -52 17
-52 51 0 60 70 79 99 28z m-2314 -103 c32 -49 -23 -89 -67 -49 -21 19 -23 44
-6 61 20 20 56 14 73 -12z m1429 -2 c20 -20 20 -48 0 -68 -18 -19 -38 -20 -65
-6 -22 12 -26 59 -7 78 17 17 54 15 72 -4z m674 -9 c17 -22 21 -23 33 -9 25
30 49 36 75 19 55 -36 8 -124 -52 -96 -13 6 -28 20 -32 32 -8 20 -8 20 -20 -5
-9 -21 -19 -26 -46 -26 -54 0 -75 51 -36 90 27 27 54 25 78 -5z m262 -6 c27
-50 -23 -104 -75 -81 -29 14 -35 61 -9 86 23 23 71 20 84 -5z m122 4 c36 -33
10 -93 -42 -93 -33 0 -50 17 -50 49 0 52 54 78 92 44z m-2504 -89 c38 -26 23
-84 -22 -84 -25 0 -56 28 -56 51 0 16 34 49 50 49 3 0 16 -7 28 -16z m1441
-18 c38 -46 -25 -111 -69 -71 -22 20 -26 55 -8 73 17 17 63 15 77 -2z m127
-11 c11 -16 11 -25 1 -45 -18 -36 -61 -39 -83 -6 -15 24 -15 28 0 52 21 30 62
30 82 -1z m-1222 -1 c33 -33 10 -84 -38 -84 -37 0 -61 61 -34 88 17 17 54 15
72 -4z m118 -1 c26 -23 23 -59 -8 -79 -24 -16 -27 -16 -52 3 -34 25 -39 49
-16 74 21 23 51 24 76 2z m1242 -16 c8 -23 6 -31 -12 -49 -30 -30 -75 -16 -80
25 -5 38 15 59 52 55 23 -2 33 -10 40 -31z m114 21 c7 -7 12 -24 12 -38 0 -48
-45 -67 -82 -33 -22 20 -23 41 -1 65 18 21 53 24 71 6z m423 -9 c20 -20 19
-48 -3 -76 -17 -21 -65 -15 -82 9 -21 30 -20 44 4 68 26 26 55 25 81 -1z m129
1 c11 -11 20 -27 20 -35 0 -24 -48 -68 -66 -61 -9 3 -19 6 -23 6 -16 0 -31 51
-21 70 22 41 60 50 90 20z m-1279 0 c10 -6 19 -17 19 -25 0 -8 5 -15 10 -15 6
0 10 7 10 15 0 20 37 38 66 31 53 -14 50 -89 -3 -102 -21 -6 -31 -1 -50 21
l-24 28 -15 -22 c-17 -23 -62 -29 -82 -9 -7 7 -12 24 -12 38 0 45 37 63 81 40z
m-1093 -90 c25 -23 24 -22 16 -44 -19 -49 -94 -38 -94 13 0 49 42 65 78 31z
m436 -31 l14 -21 21 21 c28 28 52 27 80 -3 28 -29 21 -62 -15 -78 -20 -10 -29
-8 -55 11 -28 21 -32 21 -48 7 -22 -20 -55 -20 -75 0 -19 18 -21 55 -4 72 19
19 65 14 82 -9z m1374 5 c26 -18 28 -50 5 -76 -20 -22 -41 -23 -65 -1 -25 22
-23 59 4 77 12 9 25 16 28 16 3 0 16 -7 28 -16z m-778 -14 c11 -11 20 -27 20
-35 0 -18 -35 -55 -53 -55 -24 0 -57 31 -57 55 0 51 54 71 90 35z m120 0 c11
-11 20 -28 20 -37 0 -22 -29 -53 -49 -53 -26 0 -61 29 -61 51 0 23 34 59 55
59 8 0 24 -9 35 -20z m1097 -9 c27 -56 -42 -107 -89 -64 -22 20 -23 42 -2 71
22 31 74 27 91 -7z m125 5 c12 -17 9 -61 -4 -74 -20 -20 -76 -15 -88 9 -16 29
-4 68 23 79 25 10 58 3 69 -14z m-2382 -74 c48 -39 -3 -102 -55 -68 -29 19
-32 47 -9 70 20 21 37 20 64 -2z m524 -35 c22 -22 24 -23 35 -5 15 24 63 23
86 -2 15 -16 17 -26 9 -48 -12 -35 -57 -42 -88 -13 -22 21 -22 21 -39 1 -22
-26 -52 -25 -77 0 -24 24 -25 47 -3 72 22 24 49 23 77 -5z m424 -12 c19 -25
21 -25 34 -7 29 41 88 31 101 -17 14 -56 -65 -83 -101 -34 -19 26 -20 27 -26
5 -14 -43 -87 -37 -101 8 -9 29 20 70 50 70 13 0 32 -11 43 -25z m866 12 c22
-16 18 -65 -5 -80 -47 -29 -101 32 -64 73 21 23 44 25 69 7z m430 -13 c22 -21
20 -50 -4 -74 -24 -24 -38 -25 -68 -4 -41 29 -19 94 33 94 13 0 31 -7 39 -16z
m128 -1 c37 -33 10 -93 -43 -93 -49 0 -67 66 -27 94 29 20 47 20 70 -1z
m-2372 -73 c11 -11 20 -25 20 -32 0 -19 -31 -48 -52 -48 -19 0 -58 33 -58 50
0 15 38 50 55 50 8 0 24 -9 35 -20z m583 -40 l14 -20 18 20 c29 33 71 25 93
-16 26 -50 -53 -88 -93 -44 l-18 20 -14 -20 c-27 -38 -93 -18 -93 28 0 16 5
33 12 40 19 19 65 14 81 -8z m302 -10 l18 -20 14 20 c35 50 120 1 95 -55 -16
-34 -74 -35 -96 -3 l-16 22 -16 -22 c-17 -24 -62 -30 -82 -10 -7 7 -12 24 -12
38 0 14 5 31 12 38 19 19 63 14 83 -8z m934 6 c21 -25 9 -69 -21 -80 -50 -17
-89 42 -52 78 19 20 58 21 73 2z m166 -10 c19 -29 6 -71 -25 -81 -32 -10 -70
19 -70 55 0 50 67 69 95 26z m125 4 c11 -11 20 -27 20 -35 0 -23 -37 -55 -65
-55 -34 0 -59 39 -46 73 16 41 59 49 91 17z m-1843 -18 c11 -14 15 -14 31 1
37 33 92 11 92 -37 0 -47 -61 -64 -95 -26 l-18 20 -14 -20 c-17 -24 -55 -26
-77 -4 -17 16 -21 51 -8 70 17 26 67 23 89 -4z m1979 3 c15 -23 15 -27 0 -50
-11 -17 -26 -25 -46 -25 -20 0 -35 8 -46 25 -15 23 -15 27 0 50 11 17 26 25
46 25 20 0 35 -8 46 -25z m-1080 -30 c33 -50 -20 -104 -71 -71 -27 18 -34 63
-13 84 21 21 66 14 84 -13z m112 9 c26 -18 28 -50 5 -76 -32 -35 -93 -10 -93
38 0 22 33 54 55 54 6 0 21 -7 33 -16z m-1515 -19 c25 -13 31 -13 51 0 25 17
70 7 78 -15 2 -8 13 -6 35 6 29 17 32 17 57 0 33 -21 32 -55 -3 -72 -25 -13
-71 -1 -71 19 0 6 -8 3 -18 -6 -22 -20 -73 -22 -90 -5 -9 9 -15 9 -24 0 -7 -7
-26 -12 -43 -12 -17 0 -36 5 -43 12 -19 19 -14 55 10 72 27 19 26 19 61 1z
m2065 -94 c4 -26 -24 -61 -48 -61 -25 0 -52 35 -48 61 4 33 46 53 73 35 11 -7
21 -23 23 -35z m150 27 c7 -7 12 -24 12 -38 0 -33 -17 -50 -49 -50 -26 0 -61
25 -61 44 0 6 7 22 16 34 17 24 62 30 82 10z m124 -5 c22 -20 23 -51 1 -75
-20 -22 -42 -23 -71 -2 -26 18 -28 50 -5 76 20 22 51 23 75 1z m-1844 -9 c8
-15 11 -15 35 1 53 35 115 -11 82 -61 -18 -28 -59 -32 -86 -8 -17 15 -19 15
-34 0 -21 -20 -59 -21 -79 0 -19 18 -20 38 -6 65 14 24 75 27 88 3z m906 -47
c18 -51 -50 -90 -89 -51 -23 23 -15 66 14 80 32 16 64 3 75 -29z m114 21 c7
-7 12 -24 12 -38 0 -34 -17 -50 -52 -50 -18 0 -33 8 -44 25 -15 23 -15 27 0
50 18 27 63 34 84 13z m-1626 -9 c15 -8 27 -8 45 2 21 11 29 11 55 -4 22 -12
34 -15 42 -7 14 14 62 13 86 -2 15 -9 24 -9 43 1 46 25 100 -16 77 -58 -15
-28 -47 -35 -75 -17 -22 14 -26 14 -54 -2 -30 -16 -33 -16 -63 1 -21 12 -34
15 -42 7 -14 -14 -59 -13 -81 4 -16 11 -22 11 -45 -2 -25 -15 -30 -14 -54 1
-62 41 -1 112 66 76z m2150 -71 c40 -33 19 -88 -33 -88 -22 0 -32 6 -39 26
-20 50 31 94 72 62z m-1550 -17 c12 -19 12 -19 37 0 26 21 69 19 83 -4 15 -24
8 -57 -17 -73 -28 -19 -60 -11 -76 18 l-11 20 -14 -21 c-17 -23 -63 -28 -82
-9 -15 15 -15 61 0 76 19 19 66 15 80 -7z m905 -35 c19 -24 20 -24 32 -4 9 14
21 18 49 16 30 -2 38 -8 46 -30 20 -57 -54 -92 -92 -44 -18 24 -19 24 -35 5
-19 -21 -67 -25 -85 -7 -17 17 -15 54 4 72 23 23 60 19 81 -8z m-1512 0 c16
-12 22 -12 42 1 30 20 71 9 85 -22 9 -21 8 -28 -7 -45 -21 -23 -67 -26 -84 -6
-10 12 -16 12 -39 0 -44 -22 -82 -3 -82 43 0 38 50 55 85 29z m343 -19 c33
-26 -14 -86 -57 -72 -32 10 -39 54 -12 76 21 17 43 16 69 -4z m1816 -63 c19
-18 21 -55 4 -72 -31 -31 -88 -4 -88 42 0 20 28 46 50 46 10 0 26 -7 34 -16z
m-2162 -35 c15 -8 27 -8 45 2 36 19 77 2 81 -36 6 -48 -56 -75 -92 -40 -13 13
-18 13 -44 -2 -28 -16 -31 -16 -56 0 -62 41 -1 112 66 76z m348 -30 c24 -43
-43 -92 -78 -57 -13 13 -16 60 -5 71 3 4 21 7 39 7 23 0 37 -6 44 -21z m1813
-70 c16 -26 0 -68 -29 -75 -46 -12 -85 51 -52 84 17 17 68 11 81 -9z m-2156
-20 c8 -8 17 -8 31 0 33 18 60 13 77 -13 33 -50 -28 -96 -81 -61 -19 12 -29
14 -37 6 -15 -15 -60 -14 -75 1 -15 15 -15 51 0 66 15 15 70 16 85 1z m339
-34 c9 -35 -1 -53 -31 -61 -18 -4 -32 -1 -45 11 -39 35 -19 75 37 75 26 0 34
-5 39 -25z m335 9 c13 -12 22 -13 38 -5 26 14 64 14 79 -1 7 -7 12 -24 12 -40
0 -46 -61 -65 -94 -29 -16 18 -19 18 -37 3 -16 -14 -16 -18 -5 -31 22 -26 24
-45 8 -73 -13 -22 -13 -30 -3 -42 12 -14 15 -14 36 0 31 20 67 15 80 -12 l11
-22 26 23 c29 25 64 24 84 -2 10 -11 16 -11 42 4 42 24 82 7 82 -37 0 -56 -74
-78 -100 -30 -10 19 -11 19 -30 0 -28 -28 -66 -26 -86 5 -17 25 -17 25 -31 5
-18 -25 -78 -28 -91 -4 -9 16 -11 16 -33 0 -30 -20 -48 -20 -71 1 -22 19 -24
56 -4 72 12 10 12 16 -2 41 -16 28 -16 30 12 59 22 23 26 31 14 31 -17 0 -34
34 -29 60 6 37 61 52 92 24z m249 -24 c10 -19 11 -19 30 0 24 24 57 26 82 3
24 -21 23 -48 -3 -74 -23 -23 -64 -19 -85 9 -11 15 -13 15 -28 -1 -20 -20 -67
-22 -84 -5 -7 7 -12 24 -12 38 0 35 17 50 57 50 22 0 36 -6 43 -20z m237 -10
c16 -18 18 -18 35 -3 21 19 62 20 83 3 22 -18 18 -57 -7 -74 -31 -22 -54 -20
-74 7 -17 22 -19 22 -36 5 -21 -21 -68 -24 -86 -6 -7 7 -12 22 -12 34 0 50 64
72 97 34z m234 0 c28 -15 25 -65 -5 -85 -37 -24 -86 2 -86 46 0 15 39 49 56
49 8 0 24 -5 35 -10z m136 -19 c13 -16 8 -46 -10 -69 -7 -9 -5 -18 7 -30 20
-23 21 -52 2 -77 -8 -11 -12 -32 -9 -50 10 -63 -80 -92 -101 -33 -8 23 -6 32
13 52 19 20 21 27 11 46 -10 19 -9 27 9 51 17 22 18 30 7 36 -7 4 -18 18 -25
31 -10 19 -8 26 14 48 27 27 59 26 82 -5z m615 -18 c22 -20 23 -51 1 -75 -20
-22 -41 -23 -65 -1 -22 20 -23 51 -1 75 20 22 41 23 65 1z m-1810 -58 c12 -28
0 -50 -34 -61 -23 -7 -58 20 -58 46 0 44 73 57 92 15z m1817 -87 c14 -24 14
-28 -3 -47 -50 -55 -118 8 -73 67 17 21 60 10 76 -20z m-1825 -24 c19 -49 -19
-88 -63 -65 -23 13 -30 66 -8 74 27 11 65 6 71 -9z m823 -4 c15 -17 19 -18 32
-6 49 44 121 2 92 -53 -21 -39 -101 -35 -101 4 0 21 -13 18 -28 -6 -19 -30
-72 -23 -91 13 -14 24 -14 28 3 47 24 27 71 27 93 1z m237 -9 c24 -26 17 -62
-15 -80 -24 -13 -29 -13 -53 2 -33 22 -34 60 -4 81 30 21 51 20 72 -3z m759
-82 c14 -23 1 -67 -23 -74 -49 -15 -85 29 -60 75 14 25 67 25 83 -1z m-1825
-21 c20 -20 14 -46 -14 -65 -31 -20 -57 -9 -62 26 -7 42 46 69 76 39z m1812
-98 c21 -21 23 -29 14 -54 -19 -49 -94 -38 -94 13 0 31 22 61 46 61 8 0 23 -9
34 -20z m-1820 -20 c11 -11 20 -24 20 -30 0 -13 -37 -50 -51 -50 -53 0 -68 74
-19 93 25 9 29 8 50 -13z m118 -2 c20 -20 14 -56 -13 -74 -23 -15 -27 -15 -50
0 -31 20 -32 50 -3 70 27 19 50 20 66 4z m110 -10 c16 -16 15 -53 -2 -67 -22
-19 -68 -9 -77 15 -16 45 46 85 79 52z m127 -38 c0 -29 -5 -36 -28 -44 -35
-13 -61 1 -65 34 -5 30 24 52 63 48 27 -3 30 -6 30 -38z m109 24 c20 -19 20
-34 0 -62 -17 -24 -53 -29 -72 -10 -19 19 -14 55 10 72 28 20 43 20 62 0z
m120 -10 c23 -23 19 -51 -9 -70 -37 -24 -75 -6 -75 35 0 46 52 68 84 35z m126
-10 c32 -38 -36 -106 -74 -74 -22 17 -20 66 2 79 25 15 58 13 72 -5z m110 -2
c30 -24 21 -68 -16 -82 -55 -21 -91 34 -49 76 29 29 36 29 65 6z m124 -8 c21
-20 20 -43 -1 -66 -18 -21 -53 -24 -71 -6 -28 28 -2 88 38 88 10 0 26 -7 34
-16z m129 -15 c16 -26 0 -68 -29 -75 -27 -7 -64 18 -64 44 0 44 70 68 93 31z
m101 15 c43 -16 37 -86 -7 -98 -43 -11 -76 29 -55 67 18 34 33 42 62 31z m141
-24 c38 -42 -17 -106 -64 -74 -25 18 -27 51 -4 76 21 24 45 23 68 -2z m123 -2
c7 -7 12 -24 12 -40 0 -53 -83 -64 -96 -12 -12 46 51 85 84 52z m136 -31 c8
-23 6 -31 -12 -49 -30 -30 -75 -16 -80 25 -5 38 15 59 52 55 23 -2 33 -10 40
-31z m110 17 c19 -18 21 -55 4 -72 -7 -7 -25 -12 -40 -12 -21 0 -31 6 -38 26
-20 53 36 97 74 58z m140 -27 c13 -37 -2 -61 -42 -65 -41 -4 -62 33 -44 74 10
21 18 25 44 22 25 -2 35 -9 42 -31z m-1360 -23 c22 -22 20 -50 -6 -74 -26 -24
-37 -25 -66 -4 -27 19 -28 48 -2 74 24 24 53 26 74 4z m234 -10 c29 -20 28
-49 -4 -81 -25 -25 -25 -25 -5 -40 29 -19 26 -59 -5 -88 -24 -23 -25 -23 -5
-30 34 -11 38 -52 8 -83 -26 -27 -26 -28 -7 -40 26 -16 26 -63 0 -87 l-20 -18
20 -14 c11 -8 20 -25 20 -39 0 -27 -32 -64 -55 -64 -20 0 -55 36 -55 55 0 9
12 27 26 40 25 23 25 24 5 35 -30 15 -28 64 2 87 l24 18 -24 18 c-30 24 -29
60 2 85 l25 20 -21 14 c-31 20 -28 66 6 94 26 20 26 21 6 27 -41 10 -40 75 1
95 31 14 30 14 56 -4z m372 -33 c22 -41 -2 -91 -43 -91 -25 0 -57 28 -57 49 0
52 77 84 100 42z m240 -11 c25 -25 25 -41 -1 -74 -20 -25 -20 -28 -5 -45 22
-24 20 -60 -4 -86 l-20 -22 20 -18 c24 -22 25 -43 4 -73 -18 -26 -50 -28 -76
-5 -24 21 -23 52 3 79 20 21 20 24 5 39 -24 24 -20 71 6 89 l22 16 -22 16
c-30 20 -30 68 0 88 30 21 44 20 68 -4z m-859 -60 c25 -14 25 -62 -1 -85 l-20
-18 20 -19 c26 -24 25 -46 -2 -75 -25 -27 -45 -29 -70 -6 -26 23 -22 58 8 82
25 19 25 20 5 31 -26 13 -28 56 -4 82 18 20 36 23 64 8z m601 -42 c9 -7 18
-20 20 -28 7 -19 -19 -70 -34 -70 -7 0 -2 -9 10 -20 28 -26 28 -60 1 -94 -11
-14 -16 -26 -9 -26 6 0 15 -12 20 -26 10 -26 -1 -61 -24 -76 -7 -4 -4 -13 7
-26 47 -52 -18 -136 -67 -86 -22 21 -20 60 3 83 19 19 19 20 0 37 -25 22 -24
59 2 85 18 18 19 22 6 32 -28 22 -29 53 -3 84 24 28 24 29 5 41 -24 15 -25 59
-2 84 19 21 43 23 65 6z m-940 -65 c14 -13 20 -12 47 1 39 20 38 21 66 -10 14
-15 25 -22 25 -16 0 5 13 15 29 20 58 20 98 -48 49 -82 -31 -22 -54 -20 -72 6
-15 20 -16 21 -34 5 -26 -24 -68 -21 -86 5 -15 20 -16 21 -34 5 -37 -34 -82
-15 -82 35 0 20 8 31 27 42 29 15 36 13 65 -11z m1316 -85 c18 -18 14 -63 -8
-83 -45 -41 -110 18 -76 70 18 27 63 34 84 13z m120 -11 c30 -23 1 -97 -39
-97 -47 0 -67 76 -28 104 21 14 42 12 67 -7z m120 -3 c28 -19 29 -61 2 -89
-18 -20 -19 -23 -5 -35 22 -18 19 -77 -4 -91 -18 -12 -18 -12 0 -30 36 -36 17
-99 -29 -99 -16 0 -33 5 -40 12 -19 19 -15 76 7 89 18 12 18 12 0 30 -26 26
-24 74 3 93 20 15 21 16 5 34 -24 26 -21 68 5 86 12 9 25 16 28 16 3 0 16 -7
28 -16z m-1556 -30 c8 -18 7 -29 -6 -49 -9 -14 -21 -25 -27 -25 -6 0 2 -13 18
-28 27 -28 28 -28 47 -10 11 10 28 18 37 18 19 0 49 -25 49 -41 0 -6 12 -1 26
10 34 27 59 27 77 0 19 -26 11 -56 -19 -75 -28 -19 -61 -11 -69 17 -6 19 -7
19 -32 -1 -34 -27 -59 -25 -79 5 l-17 26 -24 -22 c-19 -19 -28 -21 -51 -13
-39 14 -44 66 -7 90 l26 17 -23 11 c-34 17 -35 59 -3 84 31 24 62 19 77 -14z
m342 -139 c6 -11 12 -21 13 -23 1 -2 11 6 22 17 12 12 30 21 40 21 25 0 51
-26 51 -51 0 -23 -34 -59 -55 -59 -17 0 -55 35 -55 50 0 5 -11 -2 -25 -15 -27
-28 -37 -30 -66 -15 -24 13 -25 57 -2 82 21 24 62 20 77 -7z m720 -51 c19 -18
19 -24 6 -58 -19 -51 -100 -38 -100 16 0 53 58 79 94 42z m116 -4 c24 -24 25
-38 4 -68 -30 -43 -94 -21 -94 32 0 20 35 56 55 56 8 0 24 -9 35 -20z m118 -6
c32 -22 27 -73 -10 -93 -24 -14 -28 -14 -47 3 -25 23 -27 63 -4 88 20 22 32
23 61 2z m132 -14 c24 -24 26 -53 4 -74 -35 -36 -94 -13 -94 36 0 22 34 58 55
58 8 0 24 -9 35 -20z"/>
</g>
</svg>
